# xmcd
#
# Track frame offsets:
#	150
#	22795
#	52305
#	77552
#	104920
#	107860
#	132995
#	165812
#	189100
#	200680
#	259275
#
# Disc length: 3669 seconds
#
# Revision: 1
# Processed by: cddbd v1.4PL0 Copyright (c) Steve Scherf et al.
# Submitted via: audiograbber 1.81.02
#
DISCID=930e530b
DTITLE=Divine Lust - Divine Lust
DYEAR=1900
DGENRE=
TTITLE0=Again
TTITLE1=Alone in the Dark
TTITLE2=Morrigan
TTITLE3=Where Only the Weak Survive
TTITLE4=V
TTITLE5=Goddess Night
TTITLE6=Your Cruel Thirst
TTITLE7=Embrace
TTITLE8=Scarlet Room of Passion
TTITLE9=Divine Lust
TTITLE10=Data Track
EXTD=
EXTT0=
EXTT1=
EXTT2=
EXTT3=
EXTT4=
EXTT5=
EXTT6=
EXTT7=
EXTT8=
EXTT9=
EXTT10=
PLAYORDER=
